<svg xmlns="http://www.w3.org/2000/svg" version="1.1" xmlns:xlink="http://www.w3.org/1999/xlink" xmlns:svgjs="http://svgjs.com/svgjs" width="1440" height="560" preserveAspectRatio="none" viewBox="0 0 1440 560"><g mask="url(&quot;#SvgjsMask1823&quot;)" fill="none"><rect width="1440" height="560" x="0" y="0" fill="url(#SvgjsLinearGradient1824)"></rect><path d="M-38.1 353.33L-38.1 353.33" stroke="#132e65" stroke-width="1.5"></path><path d="M-38.1 353.33L64.65 405.28" stroke="#132e65" stroke-width="1.5"></path><path d="M-38.1 353.33L54.65 492.02" stroke="#132e65" stroke-width="1.5"></path><path d="M-38.1 353.33L-93.65 523.15" stroke="#132e65" stroke-width="1.5"></path><path d="M-38.1 353.33L187.71 390.82" stroke="#132e65" stroke-width="1.5"></path><path d="M-38.1 353.33L204.31 527.47" stroke="#132e65" stroke-width="1.5"></path><path d="M-38.1 353.33L65.14 670.81" stroke="#132e65" stroke-width="1.5"></path><path d="M-93.65 523.15L-93.65 523.15" stroke="#132e65" stroke-width="1.5"></path><path d="M-93.65 523.15L54.65 492.02" stroke="#132e65" stroke-width="1.5"></path><path d="M-93.65 523.15L-64.57 709.98" stroke="#132e65" stroke-width="1.5"></path><path d="M-93.65 523.15L64.65 405.28" stroke="#132e65" stroke-width="1.5"></path><path d="M-93.65 523.15L65.14 670.81" stroke="#132e65" stroke-width="1.5"></path><path d="M-64.57 709.98L-64.57 709.98" stroke="#132e65" stroke-width="1.5"></path><path d="M-64.57 709.98L65.14 670.81" stroke="#132e65" stroke-width="1.5"></path><path d="M-64.57 709.98L54.65 492.02" stroke="#132e65" stroke-width="1.5"></path><path d="M-64.57 709.98L232.74 641.07" stroke="#132e65" stroke-width="1.5"></path><path d="M-64.57 709.98L204.31 527.47" stroke="#132e65" stroke-width="1.5"></path><path d="M64.65 405.28L64.65 405.28" stroke="#132e65" stroke-width="1.5"></path><path d="M64.65 405.28L54.65 492.02" stroke="#132e65" stroke-width="1.5"></path><path d="M64.65 405.28L187.71 390.82" stroke="#132e65" stroke-width="1.5"></path><path d="M64.65 405.28L204.31 527.47" stroke="#132e65" stroke-width="1.5"></path><path d="M54.65 492.02L54.65 492.02" stroke="#132e65" stroke-width="1.5"></path><path d="M54.65 492.02L204.31 527.47" stroke="#132e65" stroke-width="1.5"></path><path d="M54.65 492.02L187.71 390.82" stroke="#132e65" stroke-width="1.5"></path><path d="M54.65 492.02L65.14 670.81" stroke="#132e65" stroke-width="1.5"></path><path d="M65.14 670.81L65.14 670.81" stroke="#132e65" stroke-width="1.5"></path><path d="M65.14 670.81L232.74 641.07" stroke="#132e65" stroke-width="1.5"></path><path d="M65.14 670.81L204.31 527.47" stroke="#132e65" stroke-width="1.5"></path><path d="M187.71 390.82L187.71 390.82" stroke="#132e65" stroke-width="1.5"></path><path d="M187.71 390.82L204.31 527.47" stroke="#132e65" stroke-width="1.5"></path><path d="M187.71 390.82L389.16 382.08" stroke="#132e65" stroke-width="1.5"></path><path d="M187.71 390.82L343.66 536.72" stroke="#132e65" stroke-width="1.5"></path><path d="M204.31 527.47L204.31 527.47" stroke="#132e65" stroke-width="1.5"></path><path d="M204.31 527.47L232.74 641.07" stroke="#132e65" stroke-width="1.5"></path><path d="M204.31 527.47L343.66 536.72" stroke="#132e65" stroke-width="1.5"></path><path d="M232.74 641.07L232.74 641.07" stroke="#132e65" stroke-width="1.5"></path><path d="M232.74 641.07L343.66 536.72" stroke="#132e65" stroke-width="1.5"></path><path d="M232.74 641.07L398.2 671.36" stroke="#132e65" stroke-width="1.5"></path><path d="M389.16 382.08L389.16 382.08" stroke="#132e65" stroke-width="1.5"></path><path d="M389.16 382.08L490.69 411.52" stroke="#132e65" stroke-width="1.5"></path><path d="M343.66 536.72L343.66 536.72" stroke="#132e65" stroke-width="1.5"></path><path d="M343.66 536.72L398.2 671.36" stroke="#132e65" stroke-width="1.5"></path><path d="M343.66 536.72L497.5 539.29" stroke="#132e65" stroke-width="1.5"></path><path d="M343.66 536.72L389.16 382.08" stroke="#132e65" stroke-width="1.5"></path><path d="M398.2 671.36L398.2 671.36" stroke="#132e65" stroke-width="1.5"></path><path d="M398.2 671.36L499.73 693.51" stroke="#132e65" stroke-width="1.5"></path><path d="M398.2 671.36L497.5 539.29" stroke="#132e65" stroke-width="1.5"></path><path d="M490.69 411.52L490.69 411.52" stroke="#132e65" stroke-width="1.5"></path><path d="M490.69 411.52L497.5 539.29" stroke="#132e65" stroke-width="1.5"></path><path d="M490.69 411.52L343.66 536.72" stroke="#132e65" stroke-width="1.5"></path><path d="M490.69 411.52L686.12 364.68" stroke="#132e65" stroke-width="1.5"></path><path d="M490.69 411.52L642.34 550.4" stroke="#132e65" stroke-width="1.5"></path><path d="M490.69 411.52L657.25 230.4" stroke="#132e65" stroke-width="1.5"></path><path d="M497.5 539.29L497.5 539.29" stroke="#132e65" stroke-width="1.5"></path><path d="M497.5 539.29L642.34 550.4" stroke="#132e65" stroke-width="1.5"></path><path d="M497.5 539.29L499.73 693.51" stroke="#132e65" stroke-width="1.5"></path><path d="M499.73 693.51L499.73 693.51" stroke="#132e65" stroke-width="1.5"></path><path d="M499.73 693.51L644.8 662.62" stroke="#132e65" stroke-width="1.5"></path><path d="M499.73 693.51L642.34 550.4" stroke="#132e65" stroke-width="1.5"></path><path d="M499.73 693.51L343.66 536.72" stroke="#132e65" stroke-width="1.5"></path><path d="M499.73 693.51L232.74 641.07" stroke="#132e65" stroke-width="1.5"></path><path d="M657.25 230.4L657.25 230.4" stroke="#132e65" stroke-width="1.5"></path><path d="M657.25 230.4L686.12 364.68" stroke="#132e65" stroke-width="1.5"></path><path d="M686.12 364.68L686.12 364.68" stroke="#132e65" stroke-width="1.5"></path><path d="M686.12 364.68L788.95 412.29" stroke="#132e65" stroke-width="1.5"></path><path d="M686.12 364.68L642.34 550.4" stroke="#132e65" stroke-width="1.5"></path><path d="M642.34 550.4L642.34 550.4" stroke="#132e65" stroke-width="1.5"></path><path d="M642.34 550.4L644.8 662.62" stroke="#132e65" stroke-width="1.5"></path><path d="M644.8 662.62L644.8 662.62" stroke="#132e65" stroke-width="1.5"></path><path d="M644.8 662.62L809.51 697.39" stroke="#132e65" stroke-width="1.5"></path><path d="M644.8 662.62L497.5 539.29" stroke="#132e65" stroke-width="1.5"></path><path d="M644.8 662.62L398.2 671.36" stroke="#132e65" stroke-width="1.5"></path><path d="M838.36 208L838.36 208" stroke="#132e65" stroke-width="1.5"></path><path d="M838.36 208L947.3 207.39" stroke="#132e65" stroke-width="1.5"></path><path d="M788.95 412.29L788.95 412.29" stroke="#132e65" stroke-width="1.5"></path><path d="M788.95 412.29L842.08 504.28" stroke="#132e65" stroke-width="1.5"></path><path d="M842.08 504.28L842.08 504.28" stroke="#132e65" stroke-width="1.5"></path><path d="M842.08 504.28L953.54 527.92" stroke="#132e65" stroke-width="1.5"></path><path d="M842.08 504.28L962.74 395.16" stroke="#132e65" stroke-width="1.5"></path><path d="M842.08 504.28L809.51 697.39" stroke="#132e65" stroke-width="1.5"></path><path d="M842.08 504.28L642.34 550.4" stroke="#132e65" stroke-width="1.5"></path><path d="M809.51 697.39L809.51 697.39" stroke="#132e65" stroke-width="1.5"></path><path d="M809.51 697.39L992.42 670.39" stroke="#132e65" stroke-width="1.5"></path><path d="M809.51 697.39L953.54 527.92" stroke="#132e65" stroke-width="1.5"></path><path d="M942.15 -97.3L942.15 -97.3" stroke="#132e65" stroke-width="1.5"></path><path d="M942.15 -97.3L963.52 48.23" stroke="#132e65" stroke-width="1.5"></path><path d="M942.15 -97.3L1145.66 -76.31" stroke="#132e65" stroke-width="1.5"></path><path d="M942.15 -97.3L1107.16 73.2" stroke="#132e65" stroke-width="1.5"></path><path d="M963.52 48.23L963.52 48.23" stroke="#132e65" stroke-width="1.5"></path><path d="M963.52 48.23L1107.16 73.2" stroke="#132e65" stroke-width="1.5"></path><path d="M963.52 48.23L947.3 207.39" stroke="#132e65" stroke-width="1.5"></path><path d="M963.52 48.23L838.36 208" stroke="#132e65" stroke-width="1.5"></path><path d="M963.52 48.23L1145.66 -76.31" stroke="#132e65" stroke-width="1.5"></path><path d="M963.52 48.23L1127.4 246.52" stroke="#132e65" stroke-width="1.5"></path><path d="M947.3 207.39L947.3 207.39" stroke="#132e65" stroke-width="1.5"></path><path d="M947.3 207.39L1127.4 246.52" stroke="#132e65" stroke-width="1.5"></path><path d="M947.3 207.39L962.74 395.16" stroke="#132e65" stroke-width="1.5"></path><path d="M947.3 207.39L1107.16 73.2" stroke="#132e65" stroke-width="1.5"></path><path d="M947.3 207.39L1130.98 363.83" stroke="#132e65" stroke-width="1.5"></path><path d="M962.74 395.16L962.74 395.16" stroke="#132e65" stroke-width="1.5"></path><path d="M962.74 395.16L953.54 527.92" stroke="#132e65" stroke-width="1.5"></path><path d="M962.74 395.16L1130.98 363.83" stroke="#132e65" stroke-width="1.5"></path><path d="M953.54 527.92L953.54 527.92" stroke="#132e65" stroke-width="1.5"></path><path d="M953.54 527.92L992.42 670.39" stroke="#132e65" stroke-width="1.5"></path><path d="M992.42 670.39L992.42 670.39" stroke="#132e65" stroke-width="1.5"></path><path d="M992.42 670.39L1091.18 677.13" stroke="#132e65" stroke-width="1.5"></path><path d="M1145.66 -76.31L1145.66 -76.31" stroke="#132e65" stroke-width="1.5"></path><path d="M1145.66 -76.31L1107.16 73.2" stroke="#132e65" stroke-width="1.5"></path><path d="M1145.66 -76.31L1306.6 -73.23" stroke="#132e65" stroke-width="1.5"></path><path d="M1145.66 -76.31L1238.99 103.94" stroke="#132e65" stroke-width="1.5"></path><path d="M1145.66 -76.31L1263.5 218.31" stroke="#132e65" stroke-width="1.5"></path><path d="M1107.16 73.2L1107.16 73.2" stroke="#132e65" stroke-width="1.5"></path><path d="M1107.16 73.2L1238.99 103.94" stroke="#132e65" stroke-width="1.5"></path><path d="M1127.4 246.52L1127.4 246.52" stroke="#132e65" stroke-width="1.5"></path><path d="M1127.4 246.52L1130.98 363.83" stroke="#132e65" stroke-width="1.5"></path><path d="M1127.4 246.52L1263.5 218.31" stroke="#132e65" stroke-width="1.5"></path><path d="M1127.4 246.52L1258.32 350.45" stroke="#132e65" stroke-width="1.5"></path><path d="M1127.4 246.52L1107.16 73.2" stroke="#132e65" stroke-width="1.5"></path><path d="M1130.98 363.83L1130.98 363.83" stroke="#132e65" stroke-width="1.5"></path><path d="M1130.98 363.83L1258.32 350.45" stroke="#132e65" stroke-width="1.5"></path><path d="M1154.07 547.94L1154.07 547.94" stroke="#132e65" stroke-width="1.5"></path><path d="M1154.07 547.94L1091.18 677.13" stroke="#132e65" stroke-width="1.5"></path><path d="M1154.07 547.94L1275.15 658.64" stroke="#132e65" stroke-width="1.5"></path><path d="M1154.07 547.94L1130.98 363.83" stroke="#132e65" stroke-width="1.5"></path><path d="M1154.07 547.94L953.54 527.92" stroke="#132e65" stroke-width="1.5"></path><path d="M1154.07 547.94L992.42 670.39" stroke="#132e65" stroke-width="1.5"></path><path d="M1154.07 547.94L1258.32 350.45" stroke="#132e65" stroke-width="1.5"></path><path d="M1091.18 677.13L1091.18 677.13" stroke="#132e65" stroke-width="1.5"></path><path d="M1091.18 677.13L1275.15 658.64" stroke="#132e65" stroke-width="1.5"></path><path d="M1091.18 677.13L953.54 527.92" stroke="#132e65" stroke-width="1.5"></path><path d="M1091.18 677.13L809.51 697.39" stroke="#132e65" stroke-width="1.5"></path><path d="M1306.6 -73.23L1306.6 -73.23" stroke="#132e65" stroke-width="1.5"></path><path d="M1306.6 -73.23L1238.99 103.94" stroke="#132e65" stroke-width="1.5"></path><path d="M1306.6 -73.23L1460.39 63.96" stroke="#132e65" stroke-width="1.5"></path><path d="M1306.6 -73.23L1107.16 73.2" stroke="#132e65" stroke-width="1.5"></path><path d="M1306.6 -73.23L1587.46 -49.38" stroke="#132e65" stroke-width="1.5"></path><path d="M1238.99 103.94L1238.99 103.94" stroke="#132e65" stroke-width="1.5"></path><path d="M1238.99 103.94L1263.5 218.31" stroke="#132e65" stroke-width="1.5"></path><path d="M1263.5 218.31L1263.5 218.31" stroke="#132e65" stroke-width="1.5"></path><path d="M1263.5 218.31L1258.32 350.45" stroke="#132e65" stroke-width="1.5"></path><path d="M1263.5 218.31L1424.34 250.33" stroke="#132e65" stroke-width="1.5"></path><path d="M1263.5 218.31L1130.98 363.83" stroke="#132e65" stroke-width="1.5"></path><path d="M1263.5 218.31L1107.16 73.2" stroke="#132e65" stroke-width="1.5"></path><path d="M1258.32 350.45L1258.32 350.45" stroke="#132e65" stroke-width="1.5"></path><path d="M1258.32 350.45L1424.34 250.33" stroke="#132e65" stroke-width="1.5"></path><path d="M1258.32 350.45L1449.73 391.12" stroke="#132e65" stroke-width="1.5"></path><path d="M1275.15 658.64L1275.15 658.64" stroke="#132e65" stroke-width="1.5"></path><path d="M1275.15 658.64L1388.84 676.19" stroke="#132e65" stroke-width="1.5"></path><path d="M1275.15 658.64L1426.04 510.9" stroke="#132e65" stroke-width="1.5"></path><path d="M1275.15 658.64L1543.3 693.69" stroke="#132e65" stroke-width="1.5"></path><path d="M1460.39 63.96L1460.39 63.96" stroke="#132e65" stroke-width="1.5"></path><path d="M1460.39 63.96L1582.33 108.53" stroke="#132e65" stroke-width="1.5"></path><path d="M1460.39 63.96L1558.57 188.35" stroke="#132e65" stroke-width="1.5"></path><path d="M1460.39 63.96L1587.46 -49.38" stroke="#132e65" stroke-width="1.5"></path><path d="M1460.39 63.96L1424.34 250.33" stroke="#132e65" stroke-width="1.5"></path><path d="M1424.34 250.33L1424.34 250.33" stroke="#132e65" stroke-width="1.5"></path><path d="M1424.34 250.33L1449.73 391.12" stroke="#132e65" stroke-width="1.5"></path><path d="M1424.34 250.33L1558.57 188.35" stroke="#132e65" stroke-width="1.5"></path><path d="M1449.73 391.12L1449.73 391.12" stroke="#132e65" stroke-width="1.5"></path><path d="M1449.73 391.12L1426.04 510.9" stroke="#132e65" stroke-width="1.5"></path><path d="M1449.73 391.12L1572.45 382.44" stroke="#132e65" stroke-width="1.5"></path><path d="M1426.04 510.9L1426.04 510.9" stroke="#132e65" stroke-width="1.5"></path><path d="M1426.04 510.9L1388.84 676.19" stroke="#132e65" stroke-width="1.5"></path><path d="M1426.04 510.9L1598.05 516.83" stroke="#132e65" stroke-width="1.5"></path><path d="M1426.04 510.9L1572.45 382.44" stroke="#132e65" stroke-width="1.5"></path><path d="M1388.84 676.19L1388.84 676.19" stroke="#132e65" stroke-width="1.5"></path><path d="M1388.84 676.19L1543.3 693.69" stroke="#132e65" stroke-width="1.5"></path><path d="M1388.84 676.19L1598.05 516.83" stroke="#132e65" stroke-width="1.5"></path><path d="M1388.84 676.19L1154.07 547.94" stroke="#132e65" stroke-width="1.5"></path><path d="M1388.84 676.19L1449.73 391.12" stroke="#132e65" stroke-width="1.5"></path><path d="M1587.46 -49.38L1587.46 -49.38" stroke="#132e65" stroke-width="1.5"></path><path d="M1587.46 -49.38L1582.33 108.53" stroke="#132e65" stroke-width="1.5"></path><path d="M1587.46 -49.38L1558.57 188.35" stroke="#132e65" stroke-width="1.5"></path><path d="M1587.46 -49.38L1424.34 250.33" stroke="#132e65" stroke-width="1.5"></path><path d="M1587.46 -49.38L1238.99 103.94" stroke="#132e65" stroke-width="1.5"></path><path d="M1582.33 108.53L1582.33 108.53" stroke="#132e65" stroke-width="1.5"></path><path d="M1582.33 108.53L1558.57 188.35" stroke="#132e65" stroke-width="1.5"></path><path d="M1558.57 188.35L1558.57 188.35" stroke="#132e65" stroke-width="1.5"></path><path d="M1558.57 188.35L1572.45 382.44" stroke="#132e65" stroke-width="1.5"></path><path d="M1558.57 188.35L1449.73 391.12" stroke="#132e65" stroke-width="1.5"></path><path d="M1572.45 382.44L1572.45 382.44" stroke="#132e65" stroke-width="1.5"></path><path d="M1572.45 382.44L1598.05 516.83" stroke="#132e65" stroke-width="1.5"></path><path d="M1598.05 516.83L1598.05 516.83" stroke="#132e65" stroke-width="1.5"></path><path d="M1598.05 516.83L1543.3 693.69" stroke="#132e65" stroke-width="1.5"></path><path d="M1598.05 516.83L1449.73 391.12" stroke="#132e65" stroke-width="1.5"></path><path d="M1543.3 693.69L1543.3 693.69" stroke="#132e65" stroke-width="1.5"></path><path d="M1543.3 693.69L1426.04 510.9" stroke="#132e65" stroke-width="1.5"></path><circle r="5" cx="-38.1" cy="353.33" fill="#132e65"></circle><circle r="5" cx="-93.65" cy="523.15" fill="#132e65"></circle><circle r="5" cx="-64.57" cy="709.98" fill="#132e65"></circle><circle r="5" cx="64.65" cy="405.28" fill="#132e65"></circle><circle r="5" cx="54.65" cy="492.02" fill="#132e65"></circle><circle r="5" cx="65.14" cy="670.81" fill="#132e65"></circle><circle r="5" cx="187.71" cy="390.82" fill="#132e65"></circle><circle r="5" cx="204.31" cy="527.47" fill="#132e65"></circle><circle r="5" cx="232.74" cy="641.07" fill="#132e65"></circle><circle r="5" cx="389.16" cy="382.08" fill="#132e65"></circle><circle r="5" cx="343.66" cy="536.72" fill="#132e65"></circle><circle r="5" cx="398.2" cy="671.36" fill="#132e65"></circle><circle r="5" cx="490.69" cy="411.52" fill="#132e65"></circle><circle r="5" cx="497.5" cy="539.29" fill="#132e65"></circle><circle r="5" cx="499.73" cy="693.51" fill="#132e65"></circle><circle r="5" cx="657.25" cy="230.4" fill="#132e65"></circle><circle r="5" cx="686.12" cy="364.68" fill="#132e65"></circle><circle r="5" cx="642.34" cy="550.4" fill="#132e65"></circle><circle r="5" cx="644.8" cy="662.62" fill="#132e65"></circle><circle r="5" cx="838.36" cy="208" fill="#132e65"></circle><circle r="5" cx="788.95" cy="412.29" fill="#132e65"></circle><circle r="5" cx="842.08" cy="504.28" fill="#132e65"></circle><circle r="5" cx="809.51" cy="697.39" fill="#132e65"></circle><circle r="5" cx="942.15" cy="-97.3" fill="#132e65"></circle><circle r="5" cx="963.52" cy="48.23" fill="#132e65"></circle><circle r="5" cx="947.3" cy="207.39" fill="#132e65"></circle><circle r="5" cx="962.74" cy="395.16" fill="#132e65"></circle><circle r="5" cx="953.54" cy="527.92" fill="#132e65"></circle><circle r="5" cx="992.42" cy="670.39" fill="#132e65"></circle><circle r="5" cx="1145.66" cy="-76.31" fill="#132e65"></circle><circle r="5" cx="1107.16" cy="73.2" fill="#132e65"></circle><circle r="5" cx="1127.4" cy="246.52" fill="#132e65"></circle><circle r="5" cx="1130.98" cy="363.83" fill="#132e65"></circle><circle r="5" cx="1154.07" cy="547.94" fill="#132e65"></circle><circle r="5" cx="1091.18" cy="677.13" fill="#132e65"></circle><circle r="5" cx="1306.6" cy="-73.23" fill="#132e65"></circle><circle r="5" cx="1238.99" cy="103.94" fill="#132e65"></circle><circle r="5" cx="1263.5" cy="218.31" fill="#132e65"></circle><circle r="5" cx="1258.32" cy="350.45" fill="#132e65"></circle><circle r="5" cx="1275.15" cy="658.64" fill="#132e65"></circle><circle r="5" cx="1460.39" cy="63.96" fill="#132e65"></circle><circle r="5" cx="1424.34" cy="250.33" fill="#132e65"></circle><circle r="5" cx="1449.73" cy="391.12" fill="#132e65"></circle><circle r="5" cx="1426.04" cy="510.9" fill="#132e65"></circle><circle r="5" cx="1388.84" cy="676.19" fill="#132e65"></circle><circle r="5" cx="1587.46" cy="-49.38" fill="#132e65"></circle><circle r="5" cx="1582.33" cy="108.53" fill="#132e65"></circle><circle r="5" cx="1558.57" cy="188.35" fill="#132e65"></circle><circle r="5" cx="1572.45" cy="382.44" fill="#132e65"></circle><circle r="5" cx="1598.05" cy="516.83" fill="#132e65"></circle><circle r="5" cx="1543.3" cy="693.69" fill="#132e65"></circle><path d="M212.28 537.69L212.28 537.69" stroke="hsl(228.5, 77.2%, 51.5%)" stroke-width="1.5"></path><path d="M212.28 537.69L93.35 509.7" stroke="hsl(228.5, 77.2%, 51.5%)" stroke-width="1.5"></path><path d="M212.28 537.69L339.18 531.11" stroke="hsl(228.5, 77.2%, 51.5%)" stroke-width="1.5"></path><path d="M212.28 537.69L259.5 677.3" stroke="hsl(228.5, 77.2%, 51.5%)" stroke-width="1.5"></path><path d="M212.28 537.69L85.25 647.34" stroke="hsl(228.5, 77.2%, 51.5%)" stroke-width="1.5"></path><path d="M259.5 677.3L259.5 677.3" stroke="hsl(228.5, 77.2%, 51.5%)" stroke-width="1.5"></path><path d="M259.5 677.3L357.62 695.1" stroke="hsl(228.5, 77.2%, 51.5%)" stroke-width="1.5"></path><path d="M259.5 677.3L339.18 531.11" stroke="hsl(228.5, 77.2%, 51.5%)" stroke-width="1.5"></path><path d="M259.5 677.3L85.25 647.34" stroke="hsl(228.5, 77.2%, 51.5%)" stroke-width="1.5"></path><path d="M259.5 677.3L93.35 509.7" stroke="hsl(228.5, 77.2%, 51.5%)" stroke-width="1.5"></path><path d="M532.58 646.97L532.58 646.97" stroke="hsl(228.5, 77.2%, 51.5%)" stroke-width="1.5"></path><path d="M532.58 646.97L543.02 545.27" stroke="hsl(228.5, 77.2%, 51.5%)" stroke-width="1.5"></path><path d="M532.58 646.97L674.48 672.68" stroke="hsl(228.5, 77.2%, 51.5%)" stroke-width="1.5"></path><path d="M532.58 646.97L357.62 695.1" stroke="hsl(228.5, 77.2%, 51.5%)" stroke-width="1.5"></path><path d="M532.58 646.97L688.78 553.97" stroke="hsl(228.5, 77.2%, 51.5%)" stroke-width="1.5"></path><path d="M532.58 646.97L339.18 531.11" stroke="hsl(228.5, 77.2%, 51.5%)" stroke-width="1.5"></path><path d="M532.58 646.97L259.5 677.3" stroke="hsl(228.5, 77.2%, 51.5%)" stroke-width="1.5"></path><path d="M857.01 395.22L857.01 395.22" stroke="hsl(228.5, 77.2%, 51.5%)" stroke-width="1.5"></path><path d="M857.01 395.22L836.81 509.87" stroke="hsl(228.5, 77.2%, 51.5%)" stroke-width="1.5"></path><path d="M857.01 395.22L997.98 381.23" stroke="hsl(228.5, 77.2%, 51.5%)" stroke-width="1.5"></path><path d="M1121.57 347.12L1121.57 347.12" stroke="hsl(228.5, 77.2%, 51.5%)" stroke-width="1.5"></path><path d="M1121.57 347.12L997.98 381.23" stroke="hsl(228.5, 77.2%, 51.5%)" stroke-width="1.5"></path><path d="M1121.57 347.12L1250.24 366.5" stroke="hsl(228.5, 77.2%, 51.5%)" stroke-width="1.5"></path><path d="M1121.57 347.12L1160.17 201.16" stroke="hsl(228.5, 77.2%, 51.5%)" stroke-width="1.5"></path><path d="M1121.57 347.12L1258.2 259.51" stroke="hsl(228.5, 77.2%, 51.5%)" stroke-width="1.5"></path><path d="M1294.27 108.01L1294.27 108.01" stroke="hsl(228.5, 77.2%, 51.5%)" stroke-width="1.5"></path><path d="M1294.27 108.01L1258.2 259.51" stroke="hsl(228.5, 77.2%, 51.5%)" stroke-width="1.5"></path><path d="M1294.27 108.01L1147.42 50.76" stroke="hsl(228.5, 77.2%, 51.5%)" stroke-width="1.5"></path><path d="M1294.27 108.01L1160.17 201.16" stroke="hsl(228.5, 77.2%, 51.5%)" stroke-width="1.5"></path><path d="M1294.27 108.01L1461.84 205.27" stroke="hsl(228.5, 77.2%, 51.5%)" stroke-width="1.5"></path><path d="M1294.27 108.01L1300.65 -94.57" stroke="hsl(228.5, 77.2%, 51.5%)" stroke-width="1.5"></path><path d="M1461.84 205.27L1461.84 205.27" stroke="hsl(228.5, 77.2%, 51.5%)" stroke-width="1.5"></path><path d="M1461.84 205.27L1578.06 213.47" stroke="hsl(228.5, 77.2%, 51.5%)" stroke-width="1.5"></path><path d="M1461.84 205.27L1587.25 100.78" stroke="hsl(228.5, 77.2%, 51.5%)" stroke-width="1.5"></path><path d="M1461.84 205.27L1421.72 373.95" stroke="hsl(228.5, 77.2%, 51.5%)" stroke-width="1.5"></path><path d="M1427.07 697.55L1427.07 697.55" stroke="hsl(228.5, 77.2%, 51.5%)" stroke-width="1.5"></path><path d="M1427.07 697.55L1258.53 645.33" stroke="hsl(228.5, 77.2%, 51.5%)" stroke-width="1.5"></path><path d="M1427.07 697.55L1555.61 561.56" stroke="hsl(228.5, 77.2%, 51.5%)" stroke-width="1.5"></path><path d="M1427.07 697.55L1609.76 639.15" stroke="hsl(228.5, 77.2%, 51.5%)" stroke-width="1.5"></path><path d="M1427.07 697.55L1411.41 488.39" stroke="hsl(228.5, 77.2%, 51.5%)" stroke-width="1.5"></path><path d="M1427.07 697.55L1266.23 539.18" stroke="hsl(228.5, 77.2%, 51.5%)" stroke-width="1.5"></path><path d="M1427.07 697.55L1156.68 657.67" stroke="hsl(228.5, 77.2%, 51.5%)" stroke-width="1.5"></path><path d="M-79.87 545.15L-79.87 545.15" stroke="hsl(228.5, 77.2%, 51.5%)" stroke-width="1.5"></path><path d="M-79.87 545.15L-53.82 672.03" stroke="hsl(228.5, 77.2%, 51.5%)" stroke-width="1.5"></path><path d="M-79.87 545.15L93.35 509.7" stroke="hsl(228.5, 77.2%, 51.5%)" stroke-width="1.5"></path><path d="M-79.87 545.15L85.25 647.34" stroke="hsl(228.5, 77.2%, 51.5%)" stroke-width="1.5"></path><path d="M-79.87 545.15L212.28 537.69" stroke="hsl(228.5, 77.2%, 51.5%)" stroke-width="1.5"></path><path d="M-79.87 545.15L259.5 677.3" stroke="hsl(228.5, 77.2%, 51.5%)" stroke-width="1.5"></path><path d="M-79.87 545.15L339.18 531.11" stroke="hsl(228.5, 77.2%, 51.5%)" stroke-width="1.5"></path><path d="M-53.82 672.03L-53.82 672.03" stroke="hsl(228.5, 77.2%, 51.5%)" stroke-width="1.5"></path><path d="M-53.82 672.03L85.25 647.34" stroke="hsl(228.5, 77.2%, 51.5%)" stroke-width="1.5"></path><path d="M-53.82 672.03L93.35 509.7" stroke="hsl(228.5, 77.2%, 51.5%)" stroke-width="1.5"></path><path d="M93.35 509.7L93.35 509.7" stroke="hsl(228.5, 77.2%, 51.5%)" stroke-width="1.5"></path><path d="M93.35 509.7L85.25 647.34" stroke="hsl(228.5, 77.2%, 51.5%)" stroke-width="1.5"></path><path d="M85.25 647.34L85.25 647.34" stroke="hsl(228.5, 77.2%, 51.5%)" stroke-width="1.5"></path><path d="M339.18 531.11L339.18 531.11" stroke="hsl(228.5, 77.2%, 51.5%)" stroke-width="1.5"></path><path d="M339.18 531.11L357.62 695.1" stroke="hsl(228.5, 77.2%, 51.5%)" stroke-width="1.5"></path><path d="M339.18 531.11L543.02 545.27" stroke="hsl(228.5, 77.2%, 51.5%)" stroke-width="1.5"></path><path d="M357.62 695.1L357.62 695.1" stroke="hsl(228.5, 77.2%, 51.5%)" stroke-width="1.5"></path><path d="M543.02 545.27L543.02 545.27" stroke="hsl(228.5, 77.2%, 51.5%)" stroke-width="1.5"></path><path d="M543.02 545.27L688.78 553.97" stroke="hsl(228.5, 77.2%, 51.5%)" stroke-width="1.5"></path><path d="M543.02 545.27L674.48 672.68" stroke="hsl(228.5, 77.2%, 51.5%)" stroke-width="1.5"></path><path d="M543.02 545.27L357.62 695.1" stroke="hsl(228.5, 77.2%, 51.5%)" stroke-width="1.5"></path><path d="M543.02 545.27L836.81 509.87" stroke="hsl(228.5, 77.2%, 51.5%)" stroke-width="1.5"></path><path d="M688.78 553.97L688.78 553.97" stroke="hsl(228.5, 77.2%, 51.5%)" stroke-width="1.5"></path><path d="M688.78 553.97L674.48 672.68" stroke="hsl(228.5, 77.2%, 51.5%)" stroke-width="1.5"></path><path d="M688.78 553.97L836.81 509.87" stroke="hsl(228.5, 77.2%, 51.5%)" stroke-width="1.5"></path><path d="M688.78 553.97L844.65 662.75" stroke="hsl(228.5, 77.2%, 51.5%)" stroke-width="1.5"></path><path d="M688.78 553.97L857.01 395.22" stroke="hsl(228.5, 77.2%, 51.5%)" stroke-width="1.5"></path><path d="M674.48 672.68L674.48 672.68" stroke="hsl(228.5, 77.2%, 51.5%)" stroke-width="1.5"></path><path d="M674.48 672.68L844.65 662.75" stroke="hsl(228.5, 77.2%, 51.5%)" stroke-width="1.5"></path><path d="M674.48 672.68L836.81 509.87" stroke="hsl(228.5, 77.2%, 51.5%)" stroke-width="1.5"></path><path d="M674.48 672.68L357.62 695.1" stroke="hsl(228.5, 77.2%, 51.5%)" stroke-width="1.5"></path><path d="M836.81 509.87L836.81 509.87" stroke="hsl(228.5, 77.2%, 51.5%)" stroke-width="1.5"></path><path d="M836.81 509.87L962.22 506.42" stroke="hsl(228.5, 77.2%, 51.5%)" stroke-width="1.5"></path><path d="M836.81 509.87L844.65 662.75" stroke="hsl(228.5, 77.2%, 51.5%)" stroke-width="1.5"></path><path d="M844.65 662.75L844.65 662.75" stroke="hsl(228.5, 77.2%, 51.5%)" stroke-width="1.5"></path><path d="M997.98 381.23L997.98 381.23" stroke="hsl(228.5, 77.2%, 51.5%)" stroke-width="1.5"></path><path d="M997.98 381.23L962.22 506.42" stroke="hsl(228.5, 77.2%, 51.5%)" stroke-width="1.5"></path><path d="M962.22 506.42L962.22 506.42" stroke="hsl(228.5, 77.2%, 51.5%)" stroke-width="1.5"></path><path d="M962.22 506.42L857.01 395.22" stroke="hsl(228.5, 77.2%, 51.5%)" stroke-width="1.5"></path><path d="M1147.42 50.76L1147.42 50.76" stroke="hsl(228.5, 77.2%, 51.5%)" stroke-width="1.5"></path><path d="M1147.42 50.76L1160.17 201.16" stroke="hsl(228.5, 77.2%, 51.5%)" stroke-width="1.5"></path><path d="M1147.42 50.76L1300.65 -94.57" stroke="hsl(228.5, 77.2%, 51.5%)" stroke-width="1.5"></path><path d="M1160.17 201.16L1160.17 201.16" stroke="hsl(228.5, 77.2%, 51.5%)" stroke-width="1.5"></path><path d="M1160.17 201.16L1258.2 259.51" stroke="hsl(228.5, 77.2%, 51.5%)" stroke-width="1.5"></path><path d="M1160.17 201.16L1250.24 366.5" stroke="hsl(228.5, 77.2%, 51.5%)" stroke-width="1.5"></path><path d="M1153.01 521.22L1153.01 521.22" stroke="hsl(228.5, 77.2%, 51.5%)" stroke-width="1.5"></path><path d="M1153.01 521.22L1266.23 539.18" stroke="hsl(228.5, 77.2%, 51.5%)" stroke-width="1.5"></path><path d="M1153.01 521.22L1156.68 657.67" stroke="hsl(228.5, 77.2%, 51.5%)" stroke-width="1.5"></path><path d="M1153.01 521.22L1258.53 645.33" stroke="hsl(228.5, 77.2%, 51.5%)" stroke-width="1.5"></path><path d="M1156.68 657.67L1156.68 657.67" stroke="hsl(228.5, 77.2%, 51.5%)" stroke-width="1.5"></path><path d="M1156.68 657.67L1258.53 645.33" stroke="hsl(228.5, 77.2%, 51.5%)" stroke-width="1.5"></path><path d="M1156.68 657.67L1266.23 539.18" stroke="hsl(228.5, 77.2%, 51.5%)" stroke-width="1.5"></path><path d="M1156.68 657.67L962.22 506.42" stroke="hsl(228.5, 77.2%, 51.5%)" stroke-width="1.5"></path><path d="M1156.68 657.67L1250.24 366.5" stroke="hsl(228.5, 77.2%, 51.5%)" stroke-width="1.5"></path><path d="M1300.65 -94.57L1300.65 -94.57" stroke="hsl(228.5, 77.2%, 51.5%)" stroke-width="1.5"></path><path d="M1300.65 -94.57L1458.18 -110.11" stroke="hsl(228.5, 77.2%, 51.5%)" stroke-width="1.5"></path><path d="M1300.65 -94.57L1579.8 -77.04" stroke="hsl(228.5, 77.2%, 51.5%)" stroke-width="1.5"></path><path d="M1258.2 259.51L1258.2 259.51" stroke="hsl(228.5, 77.2%, 51.5%)" stroke-width="1.5"></path><path d="M1258.2 259.51L1250.24 366.5" stroke="hsl(228.5, 77.2%, 51.5%)" stroke-width="1.5"></path><path d="M1250.24 366.5L1250.24 366.5" stroke="hsl(228.5, 77.2%, 51.5%)" stroke-width="1.5"></path><path d="M1250.24 366.5L1421.72 373.95" stroke="hsl(228.5, 77.2%, 51.5%)" stroke-width="1.5"></path><path d="M1266.23 539.18L1266.23 539.18" stroke="hsl(228.5, 77.2%, 51.5%)" stroke-width="1.5"></path><path d="M1266.23 539.18L1258.53 645.33" stroke="hsl(228.5, 77.2%, 51.5%)" stroke-width="1.5"></path><path d="M1266.23 539.18L1411.41 488.39" stroke="hsl(228.5, 77.2%, 51.5%)" stroke-width="1.5"></path><path d="M1266.23 539.18L1250.24 366.5" stroke="hsl(228.5, 77.2%, 51.5%)" stroke-width="1.5"></path><path d="M1258.53 645.33L1258.53 645.33" stroke="hsl(228.5, 77.2%, 51.5%)" stroke-width="1.5"></path><path d="M1458.18 -110.11L1458.18 -110.11" stroke="hsl(228.5, 77.2%, 51.5%)" stroke-width="1.5"></path><path d="M1458.18 -110.11L1579.8 -77.04" stroke="hsl(228.5, 77.2%, 51.5%)" stroke-width="1.5"></path><path d="M1458.18 -110.11L1587.25 100.78" stroke="hsl(228.5, 77.2%, 51.5%)" stroke-width="1.5"></path><path d="M1421.72 373.95L1421.72 373.95" stroke="hsl(228.5, 77.2%, 51.5%)" stroke-width="1.5"></path><path d="M1421.72 373.95L1411.41 488.39" stroke="hsl(228.5, 77.2%, 51.5%)" stroke-width="1.5"></path><path d="M1421.72 373.95L1588.1 368" stroke="hsl(228.5, 77.2%, 51.5%)" stroke-width="1.5"></path><path d="M1411.41 488.39L1411.41 488.39" stroke="hsl(228.5, 77.2%, 51.5%)" stroke-width="1.5"></path><path d="M1411.41 488.39L1555.61 561.56" stroke="hsl(228.5, 77.2%, 51.5%)" stroke-width="1.5"></path><path d="M1411.41 488.39L1250.24 366.5" stroke="hsl(228.5, 77.2%, 51.5%)" stroke-width="1.5"></path><path d="M1579.8 -77.04L1579.8 -77.04" stroke="hsl(228.5, 77.2%, 51.5%)" stroke-width="1.5"></path><path d="M1579.8 -77.04L1587.25 100.78" stroke="hsl(228.5, 77.2%, 51.5%)" stroke-width="1.5"></path><path d="M1579.8 -77.04L1578.06 213.47" stroke="hsl(228.5, 77.2%, 51.5%)" stroke-width="1.5"></path><path d="M1587.25 100.78L1587.25 100.78" stroke="hsl(228.5, 77.2%, 51.5%)" stroke-width="1.5"></path><path d="M1587.25 100.78L1578.06 213.47" stroke="hsl(228.5, 77.2%, 51.5%)" stroke-width="1.5"></path><path d="M1587.25 100.78L1588.1 368" stroke="hsl(228.5, 77.2%, 51.5%)" stroke-width="1.5"></path><path d="M1578.06 213.47L1578.06 213.47" stroke="hsl(228.5, 77.2%, 51.5%)" stroke-width="1.5"></path><path d="M1578.06 213.47L1588.1 368" stroke="hsl(228.5, 77.2%, 51.5%)" stroke-width="1.5"></path><path d="M1588.1 368L1588.1 368" stroke="hsl(228.5, 77.2%, 51.5%)" stroke-width="1.5"></path><path d="M1588.1 368L1555.61 561.56" stroke="hsl(228.5, 77.2%, 51.5%)" stroke-width="1.5"></path><path d="M1555.61 561.56L1555.61 561.56" stroke="hsl(228.5, 77.2%, 51.5%)" stroke-width="1.5"></path><path d="M1555.61 561.56L1609.76 639.15" stroke="hsl(228.5, 77.2%, 51.5%)" stroke-width="1.5"></path><path d="M1609.76 639.15L1609.76 639.15" stroke="hsl(228.5, 77.2%, 51.5%)" stroke-width="1.5"></path><path d="M1609.76 639.15L1411.41 488.39" stroke="hsl(228.5, 77.2%, 51.5%)" stroke-width="1.5"></path><path d="M1609.76 639.15L1588.1 368" stroke="hsl(228.5, 77.2%, 51.5%)" stroke-width="1.5"></path><path d="M1609.76 639.15L1421.72 373.95" stroke="hsl(228.5, 77.2%, 51.5%)" stroke-width="1.5"></path><circle r="25" cx="212.28" cy="537.69" fill="url(#SvgjsRadialGradient1825)"></circle><circle r="25" cx="259.5" cy="677.3" fill="url(#SvgjsRadialGradient1825)"></circle><circle r="25" cx="532.58" cy="646.97" fill="url(#SvgjsRadialGradient1825)"></circle><circle r="25" cx="857.01" cy="395.22" fill="url(#SvgjsRadialGradient1825)"></circle><circle r="25" cx="1121.57" cy="347.12" fill="url(#SvgjsRadialGradient1825)"></circle><circle r="25" cx="1294.27" cy="108.01" fill="url(#SvgjsRadialGradient1825)"></circle><circle r="25" cx="1461.84" cy="205.27" fill="url(#SvgjsRadialGradient1825)"></circle><circle r="25" cx="1427.07" cy="697.55" fill="url(#SvgjsRadialGradient1825)"></circle><circle r="5" cx="-79.87" cy="545.15" fill="#8b9ad9"></circle><circle r="5" cx="-53.82" cy="672.03" fill="#8b9ad9"></circle><circle r="5" cx="93.35" cy="509.7" fill="#8b9ad9"></circle><circle r="5" cx="85.25" cy="647.34" fill="#8b9ad9"></circle><circle r="5" cx="339.18" cy="531.11" fill="#8b9ad9"></circle><circle r="5" cx="357.62" cy="695.1" fill="#8b9ad9"></circle><circle r="5" cx="543.02" cy="545.27" fill="#8b9ad9"></circle><circle r="5" cx="688.78" cy="553.97" fill="#8b9ad9"></circle><circle r="5" cx="674.48" cy="672.68" fill="#8b9ad9"></circle><circle r="5" cx="836.81" cy="509.87" fill="#8b9ad9"></circle><circle r="5" cx="844.65" cy="662.75" fill="#8b9ad9"></circle><circle r="5" cx="997.98" cy="381.23" fill="#8b9ad9"></circle><circle r="5" cx="962.22" cy="506.42" fill="#8b9ad9"></circle><circle r="5" cx="1147.42" cy="50.76" fill="#8b9ad9"></circle><circle r="5" cx="1160.17" cy="201.16" fill="#8b9ad9"></circle><circle r="5" cx="1153.01" cy="521.22" fill="#8b9ad9"></circle><circle r="5" cx="1156.68" cy="657.67" fill="#8b9ad9"></circle><circle r="5" cx="1300.65" cy="-94.57" fill="#8b9ad9"></circle><circle r="5" cx="1258.2" cy="259.51" fill="#8b9ad9"></circle><circle r="5" cx="1250.24" cy="366.5" fill="#8b9ad9"></circle><circle r="5" cx="1266.23" cy="539.18" fill="#8b9ad9"></circle><circle r="5" cx="1258.53" cy="645.33" fill="#8b9ad9"></circle><circle r="5" cx="1458.18" cy="-110.11" fill="#8b9ad9"></circle><circle r="5" cx="1421.72" cy="373.95" fill="#8b9ad9"></circle><circle r="5" cx="1411.41" cy="488.39" fill="#8b9ad9"></circle><circle r="5" cx="1579.8" cy="-77.04" fill="#8b9ad9"></circle><circle r="5" cx="1587.25" cy="100.78" fill="#8b9ad9"></circle><circle r="5" cx="1578.06" cy="213.47" fill="#8b9ad9"></circle><circle r="5" cx="1588.1" cy="368" fill="#8b9ad9"></circle><circle r="5" cx="1555.61" cy="561.56" fill="#8b9ad9"></circle><circle r="5" cx="1609.76" cy="639.15" fill="#8b9ad9"></circle></g><defs><mask id="SvgjsMask1823"><rect width="1440" height="560" fill="#ffffff"></rect></mask><linearGradient x1="15.28%" y1="-39.29%" x2="84.72%" y2="139.29%" gradientUnits="userSpaceOnUse" id="SvgjsLinearGradient1824"><stop stop-color="#0e2a47" offset="0"></stop><stop stop-color="rgba(212, 247, 255, 1)" offset="1"></stop></linearGradient><radialGradient id="SvgjsRadialGradient1825"><stop stop-color="#ffffff" offset="0.1"></stop><stop stop-color="#1735b3" offset="0.2"></stop><stop stop-color="rgba(23, 53, 179, 0)" offset="1"></stop></radialGradient></defs></svg>