<svg xmlns="http://www.w3.org/2000/svg" version="1.1" xmlns:xlink="http://www.w3.org/1999/xlink" xmlns:svgjs="http://svgjs.com/svgjs" width="1440" height="560" preserveAspectRatio="none" viewBox="0 0 1440 560"><g mask="url(&quot;#SvgjsMask1399&quot;)" fill="none"><rect width="1440" height="560" x="0" y="0" fill="url(#SvgjsLinearGradient1400)"></rect><path d="M1440 0L1315.9 0L1440 176.4z" fill="rgba(255, 255, 255, .1)"></path><path d="M1315.9 0L1440 176.4L1440 252.14L1218.5800000000002 0z" fill="rgba(255, 255, 255, .075)"></path><path d="M1218.58 0L1440 252.14L1440 348.5L966.26 0z" fill="rgba(255, 255, 255, .05)"></path><path d="M966.26 0L1440 348.5L1440 428.34000000000003L298.29999999999995 0z" fill="rgba(255, 255, 255, .025)"></path><path d="M0 560L546.33 560L0 508.17z" fill="rgba(0, 0, 0, .1)"></path><path d="M0 508.17L546.33 560L920.6300000000001 560L0 264.71000000000004z" fill="rgba(0, 0, 0, .075)"></path><path d="M0 264.71L920.6300000000001 560L1196.47 560L0 149.26z" fill="rgba(0, 0, 0, .05)"></path><path d="M0 149.26L1196.47 560L1340.49 560L0 89.89999999999999z" fill="rgba(0, 0, 0, .025)"></path></g><defs><mask id="SvgjsMask1399"><rect width="1440" height="560" fill="#ffffff"></rect></mask><linearGradient x1="15.28%" y1="-39.29%" x2="84.72%" y2="139.29%" gradientUnits="userSpaceOnUse" id="SvgjsLinearGradient1400"><stop stop-color="#0e2a47" offset="0"></stop><stop stop-color="rgba(202, 235, 242, 1)" offset="1"></stop></linearGradient></defs></svg>